<?xml version="1.0" encoding="utf-8"?>
<!-- Svg Vector Icons : http://www.onlinewebfonts.com/icon -->
<!DOCTYPE svg PUBLIC "-//W3C//DTD SVG 1.1//EN" "http://www.w3.org/Graphics/SVG/1.1/DTD/svg11.dtd">
<svg version="1.1" xmlns="http://www.w3.org/2000/svg" xmlns:xlink="http://www.w3.org/1999/xlink" x="0px" y="0px" viewBox="0 0 256 256" enable-background="new 0 0 256 256" xml:space="preserve">
<metadata> Svg Vector Icons : http://www.onlinewebfonts.com/icon </metadata>
<g><g><g><path fill="#000000" d="M67.5,11c-0.9,0.5-2.1,1.6-2.5,2.3c-1.1,1.6-1.1,5.2-0.2,7c0.4,0.8,25,25.2,54.7,54.3c29.7,29.1,54,53.1,54,53.3c0,0.2-24.5,24.3-54.4,53.6c-58.4,57.2-56.1,54.7-54.9,58.8c0.7,2.6,1.8,3.9,3.8,4.9c2.3,1.1,4.8,1,6.9-0.1c2.7-1.5,116-112.9,116.6-114.7c0.8-2.2,0.7-3.8-0.2-5.5c-0.9-1.8-113.6-112.5-116-114C73.3,9.7,69.7,9.7,67.5,11z"/></g></g></g>
</svg>