<?xml version="1.0" encoding="utf-8"?>
<!-- Svg Vector Icons : http://www.onlinewebfonts.com/icon -->
<!DOCTYPE svg PUBLIC "-//W3C//DTD SVG 1.1//EN" "http://www.w3.org/Graphics/SVG/1.1/DTD/svg11.dtd">
<svg version="1.1" xmlns="http://www.w3.org/2000/svg" xmlns:xlink="http://www.w3.org/1999/xlink" x="0px" y="0px" viewBox="0 0 256 256" enable-background="new 0 0 256 256" xml:space="preserve">
<metadata> Svg Vector Icons : http://www.onlinewebfonts.com/icon </metadata>
<g><g><g><path fill="#000000" d="M140.8,128.1L243.4,25.5c1.8-1.8,2.6-3.9,2.6-6.4c0-2.5-0.9-4.6-2.6-6.4c-1.8-1.8-3.9-2.6-6.5-2.6c-2.6,0-4.7,0.9-6.5,2.6L128,115.2L25.6,12.7c-1.8-1.8-3.9-2.6-6.5-2.6c-2.5,0-4.7,0.9-6.5,2.6c-1.8,1.8-2.6,3.9-2.6,6.4c0,2.5,0.9,4.6,2.6,6.4l102.6,102.6L12.7,230.5c-1.8,1.8-2.6,3.9-2.6,6.4s0.9,4.6,2.6,6.4c0.9,0.9,2,1.6,3.1,2c1.1,0.4,2.3,0.6,3.4,0.6c1.1,0,2.2-0.2,3.3-0.6c1.1-0.4,2.2-1.1,3.1-2L128,140.8l102.4,102.4c0.9,0.9,2,1.6,3.1,2s2.2,0.6,3.3,0.6c1.2,0,2.3-0.2,3.4-0.6c1.1-0.4,2.2-1.1,3.1-2c1.8-1.8,2.6-3.9,2.6-6.4s-0.9-4.6-2.6-6.4L140.8,128.1L140.8,128.1z"/></g></g></g>
</svg>