<?xml version="1.0" encoding="utf-8"?>
<!-- Svg Vector Icons : http://www.onlinewebfonts.com/icon -->
<!DOCTYPE svg PUBLIC "-//W3C//DTD SVG 1.1//EN" "http://www.w3.org/Graphics/SVG/1.1/DTD/svg11.dtd">
<svg version="1.1" xmlns="http://www.w3.org/2000/svg" xmlns:xlink="http://www.w3.org/1999/xlink" x="0px" y="0px" viewBox="0 0 256 256" enable-background="new 0 0 256 256" xml:space="preserve">
<metadata> Svg Vector Icons : http://www.onlinewebfonts.com/icon </metadata>
<g><g><path fill="#000000" d="M246,44.5c0,4.2-3.2,7.6-7.1,7.6H17.1c-3.9,0-7.1-3.4-7.1-7.6V43c0-4.2,3.2-7.6,7.1-7.6h221.7c3.9,0,7.1,3.4,7.1,7.6L246,44.5L246,44.5z"/><path fill="#000000" d="M246,128.6c0,4.2-3.2,7.6-7.1,7.6H17.1c-3.9,0-7.1-3.4-7.1-7.6v-1.5c0-4.2,3.2-7.6,7.1-7.6h221.7c3.9,0,7.1,3.4,7.1,7.6L246,128.6L246,128.6z"/><path fill="#000000" d="M246,213c0,4.2-3.2,7.6-7.1,7.6H17.1c-3.9,0-7.1-3.4-7.1-7.6v-1.5c0-4.2,3.2-7.6,7.1-7.6h221.7c3.9,0,7.1,3.4,7.1,7.6L246,213L246,213z"/></g></g>
</svg>