 <svg  version="1.0" xmlns="http://www.w3.org/2000/svg"  width="900.000000pt" height="900.000000pt" viewBox="0 0 900.000000 900.000000"  preserveAspectRatio="xMidYMid meet">  <g transform="translate(0.000000,900.000000) scale(0.100000,-0.100000)" fill="#999999" stroke="none"> <path d="M7177 5797 c-27 -21 -38 -22 -169 -20 -77 2 -173 9 -214 18 -95 20 -295 19 -449 -1 -198 -25 -252 -38 -340 -79 -64 -29 -110 -50 -135 -59 -8 -4 -27 -14 -42 -24 -205 -133 -313 -254 -393 -437 -10 -22 -24 -53 -31 -68 -8 -16 -14 -36 -14 -44 0 -8 -7 -36 -15 -62 -25 -80 -45 -213 -45 -303 0 -144 51 -394 105 -513 8 -16 16 -42 19 -56 7 -35 129 -234 174 -285 21 -22 49 -54 63 -70 37 -42 123 -112 198 -162 35 -23 65 -42 67 -42 2 0 23 -13 47 -30 25 -16 49 -30 55 -30 5 0 36 -12 68 -26 125 -55 209 -79 329 -94 44 -5 112 -14 150 -20 107 -14 375 -12 541 6 82 8 164 13 183 10 38 -6 71 8 71 29 0 8 14 44 30 78 17 35 30 71 30 80 0 9 6 31 14 49 8 18 29 69 46 113 18 44 38 92 46 107 8 14 14 36 14 48 0 12 6 34 13 48 8 15 21 42 30 60 29 57 17 113 -15 74 -8 -9 -26 -41 -41 -70 -57 -113 -170 -240 -297 -334 -49 -36 -190 -93 -283 -113 -60 -14 -103 -16 -180 -12 -144 8 -301 41 -352 74 -11 7 -28 13 -37 13 -19 0 -54 20 -168 96 -117 77 -274 254 -332 374 -58 120 -90 200 -124 315 -27 89 -27 483 0 570 23 78 44 133 63 170 9 17 26 50 39 76 49 96 194 248 281 292 85 44 281 87 399 87 100 0 270 -35 379 -79 119 -47 283 -190 352 -307 40 -66 63 -81 63 -40 0 26 -23 128 -60 261 -43 158 -60 229 -60 251 0 27 -29 104 -39 103 -3 0 -19 -10 -34 -22z"/> <path d="M1428 5782 c-12 -2 -19 -17 -23 -50 -3 -26 -12 -69 -20 -97 -8 -27 -21 -79 -31 -115 -9 -36 -22 -85 -29 -110 -41 -145 -70 -279 -62 -286 10 -10 36 10 45 35 19 54 112 179 174 232 74 65 214 132 330 160 54 13 116 19 194 19 l114 0 -3 -962 c-3 -913 -4 -966 -21 -1012 -25 -65 -74 -111 -133 -128 -29 -8 -48 -19 -48 -28 0 -13 53 -15 375 -17 206 -1 390 0 408 3 58 9 31 43 -34 44 -12 0 -42 19 -67 43 -87 82 -88 92 -85 1152 l3 900 113 3 c86 2 132 -2 198 -18 75 -18 171 -54 214 -81 8 -5 26 -14 39 -19 33 -15 160 -145 200 -205 18 -27 35 -62 38 -77 7 -36 39 -66 55 -50 9 9 7 24 -5 64 -36 116 -47 158 -47 174 0 19 -23 120 -45 199 -7 28 -21 77 -30 110 -9 33 -20 71 -23 83 l-7 24 -855 -1 c-470 -1 -868 2 -885 7 -16 4 -38 7 -47 4z"/> <path d="M3422 5748 c2 -16 12 -24 36 -29 46 -9 102 -57 131 -110 50 -94 51 -112 51 -1016 0 -908 -1 -920 -53 -1013 -26 -47 -110 -110 -144 -110 -20 0 -24 -5 -21 -22 l3 -23 730 -2 c712 -1 829 -5 840 -24 12 -18 32 -8 48 24 27 55 56 133 71 189 8 29 24 78 36 108 12 30 26 69 31 85 5 17 13 39 18 50 4 11 13 38 18 60 10 39 40 122 83 235 31 79 33 88 26 107 -7 16 -9 15 -27 -7 -11 -14 -41 -61 -68 -106 -26 -44 -72 -111 -101 -148 -54 -68 -207 -210 -245 -227 -11 -5 -29 -15 -40 -21 -97 -63 -124 -75 -220 -104 -146 -43 -210 -54 -314 -54 -97 0 -112 3 -162 28 -46 23 -58 35 -84 86 l-30 60 0 880 0 881 23 60 c13 33 31 68 40 79 22 23 85 56 110 56 23 0 46 25 37 40 -4 7 -142 10 -416 10 l-410 0 3 -22z"/> </g> </svg> 